<?xml version="1.0" encoding="UTF-8"?>
<svg id="Layer_1" xmlns="http://www.w3.org/2000/svg" version="1.1" viewBox="0 0 485.21 81.6">
  <!-- Generator: Adobe Illustrator 30.2.1, SVG Export Plug-In . SVG Version: 2.1.1 Build 1)  -->
  <path d="M44.4,22.27c-2.65-4.03-4.49-8.45-5.63-13.15C38.02,6.05,37.65,3.09,37.32,0h0c-.42,3.58-.94,6.98-1.86,10.35-1.07,3.69-2.62,7.19-4.75,10.41C23.73,31.33,12.51,37.03.14,38.02c2.6.18,5.02.19,7.6.23,6.23.11,12.22.31,18.06-2,4.42-1.75,7.87-4.93,9.86-9.25.61-1.33,1.01-2.68,1.45-4.07l.18.89c.58,1.78,1.03,3.48,1.8,5.15,2.13,4.64,5.83,8.04,10.57,9.92,2.62,1.04,5.27,1.6,7.96,1.9-2.68.3-5.33.86-7.96,1.9-4.74,1.88-8.45,5.29-10.57,9.92-.77,1.67-1.22,3.37-1.8,5.15l-.18.89c-.44-1.4-.84-2.74-1.45-4.07-1.98-4.31-5.44-7.49-9.86-9.25-5.84-2.32-11.82-2.11-18.06-2-2.57.04-5,.05-7.6.23,12.36.99,23.59,6.69,30.56,17.26,2.13,3.22,3.68,6.71,4.75,10.41.91,3.37,1.43,6.76,1.86,10.35h0c.33-3.1.71-6.05,1.46-9.12,1.14-4.7,2.98-9.13,5.63-13.15,7.49-11.34,19.52-17.47,32.79-18.53-13.27-1.06-25.31-7.18-32.79-18.53Z"/>
  <g>
    <path d="M110.05,22.79c9.07,0,14.87,5.03,16.55,12.08l6.63-1.81c-2.73-11.52-11.94-17.03-23.18-17.17-13.54-.14-23.8,7.96-23.8,24.92s10.26,25.06,23.8,24.92c11.24-.14,20.45-5.65,23.18-17.17l-6.63-1.81c-1.68,7.05-7.33,12.07-16.55,12.07-10.4.07-16.96-6.7-16.96-18.01s6.15-18.08,16.96-18.01h0Z"/>
    <path d="M155.56,29.91c-10.33-.07-19.26,5.79-19.26,17.87s8.93,17.87,19.26,17.87,19.33-5.79,19.33-17.87-8.93-17.8-19.33-17.87ZM155.56,59.79c-6.91,0-12.42-3.84-12.42-12s6.01-12.14,12.42-12.07c6.63.07,12.49,4.18,12.49,12.07s-5.72,12-12.49,12Z"/>
    <path d="M219.58,29.77c-7.19,0-11.45,6.01-12.01,12.56h-.14c.14-1.61.21-3.7-.28-5.23-1.19-3.77-3.91-7.33-10.19-7.33-4.18,0-8.03,2.09-10.47,6.84-.76,1.4-1.26,3.49-1.61,5.03h-.14c.35-1.61.62-3.63.62-5.23v-6.08h-6.84v34.91h6.84v-13.26c0-12.49,6.35-15.29,9.57-15.29,4.18,0,6.29,3.28,6.29,10.54v18.01h6.84v-13.26c0-12.42,5.79-15.29,9.28-15.29,4.18,0,6.56,3.7,6.56,10.54v18.01h6.84v-19.48c0-10.05-3.14-15.98-11.17-15.98h.01Z"/>
    <path d="M255.59,29.91c-10.33-.07-19.12,5.79-19.12,17.87s8.79,17.94,19.12,17.87c8.24-.07,15.36-3.21,18.01-11.66l-6.29-.83c-1.95,5.16-6.22,6.84-11.59,6.91-6.42.07-11.1-3.42-12.14-10.33-.69-9.77,5.94-14.52,12.14-14.45,6.35.07,10.95,3.14,11.94,10.26h-18.01c-3.35,0-5.03.42-6.08,4.18h30.43c.14-.91.14-.98.14-1.95,0-12.07-8.31-17.8-18.57-17.87h.01Z"/>
    <path d="M289.17,55.04v-18.57h8.86v-6.42h-12.35c-1.4,0-3.28.21-4.68.49v-.14c1.4-.28,3.35-.49,4.54-1.26,3.21-2.16,4.96-5.94,5.1-9.77l-6.91.07c0,4.82-4.04,10.61-7.26,10.61h-1.33v6.42h7.19v17.24c0,8.1,1.88,11.52,11.03,11.52h6.35v-6.42h-6.7c-2.16,0-3.84-.69-3.84-3.77h.01Z"/>
    <polygon points="316.53 65.23 342.01 65.23 342.01 61.18 321.42 61.18 321.42 42.68 339.92 42.68 339.92 38.64 321.42 38.64 321.42 20.42 342.01 20.42 342.01 16.36 316.53 16.36 316.53 65.23"/>
    <path d="M377.51,35.36c-1.26-2.61-3.24-4.72-5.94-6.35-2.7-1.63-5.72-2.44-9.07-2.44s-6.62.8-9.39,2.4c-2.77,1.61-4.95,3.88-6.53,6.84-1.58,2.96-2.37,6.39-2.37,10.3s.77,7.35,2.33,10.33c1.56,2.98,3.72,5.28,6.49,6.91s5.89,2.44,9.39,2.44,6.7-.84,9.36-2.55c2.66-1.7,4.56-3.87,5.72-6.53v8.52h4.89V13.58h-4.89v21.78h.01ZM375.63,54.27c-1.26,2.32-2.97,4.11-5.13,5.37s-4.55,1.88-7.15,1.88-5.12-.61-7.26-1.85c-2.14-1.24-3.83-3.03-5.06-5.37-1.24-2.35-1.85-5.08-1.85-8.2s.61-5.89,1.85-8.2,2.92-4.06,5.06-5.27c2.14-1.21,4.56-1.81,7.26-1.81s4.99.62,7.15,1.88,3.87,3.05,5.13,5.37,1.88,5.03,1.88,8.1-.62,5.77-1.88,8.1Z"/>
    <rect x="390.77" y="27.12" width="4.89" height="38.12"/>
    <rect x="390.78" y="13.58" width="4.88" height="4.88"/>
    <path d="M410.32,17.55h-4.96v9.57h-5.3v4.11h5.3v23.66c0,3.67.83,6.32,2.51,7.93s4.24,2.4,7.68,2.4h5.23v-4.18h-4.47c-2.23,0-3.79-.44-4.68-1.33s-1.33-2.48-1.33-4.82v-23.66h10.47v-4.11h-10.47v-9.57h.01Z"/>
    <path d="M452.59,28.97c-2.91-1.61-6.16-2.4-9.74-2.4s-6.82.8-9.71,2.4c-2.89,1.61-5.16,3.88-6.84,6.84-1.68,2.96-2.51,6.41-2.51,10.37s.82,7.41,2.47,10.36c1.65,2.96,3.91,5.24,6.77,6.84,2.87,1.61,6.09,2.4,9.67,2.4s6.84-.8,9.78-2.4c2.93-1.61,5.23-3.89,6.91-6.88,1.68-2.98,2.51-6.42,2.51-10.33s-.82-7.41-2.47-10.37c-1.65-2.96-3.93-5.23-6.84-6.84h0ZM454.89,54.66c-1.33,2.3-3.06,4.02-5.2,5.16s-4.47,1.71-6.98,1.71-4.83-.57-6.94-1.71c-2.12-1.14-3.81-2.87-5.1-5.16-1.28-2.3-1.92-5.13-1.92-8.48s.64-6.18,1.92-8.48,2.99-4.02,5.13-5.16,4.47-1.71,6.98-1.71,4.84.57,6.98,1.71,3.86,2.86,5.17,5.16c1.3,2.3,1.95,5.13,1.95,8.48s-.66,6.18-1.99,8.48Z"/>
    <path d="M476.12,28.38c-2.21,1.31-3.85,3.14-4.92,5.51v-6.77h-4.89v38.12h4.89v-21.3c0-4.47,1.07-7.66,3.21-9.57s4.98-2.87,8.52-2.87h1.33v-5.1c-3.21,0-5.93.65-8.13,1.95v.02Z"/>
  </g>
</svg>